<svg id="Ebene_1" data-name="Ebene 1" xmlns="http://www.w3.org/2000/svg" width="128.05mm" height="50.64mm" viewBox="0 0 362.99 143.55">
  <defs>
    <style>
      .cls-1, .cls-2 {
        fill: #fff;
      }

      .cls-1 {
        fill-rule: evenodd;
      }

      .cls-3 {
        fill: #b61f29;
      }
    </style>
  </defs>
  <g>
    <path class="cls-1" d="M131.8,18.93V46.06h-.21a10.71,10.71,0,0,0-5.09-3.81A21.13,21.13,0,0,0,118.86,41a21.78,21.78,0,0,0-11.53,3.26,23.41,23.41,0,0,0-8.51,9.4,32.38,32.38,0,0,0-3.27,15q.26,12.39,6.54,19.53a20.44,20.44,0,0,0,15.61,7.28,20.78,20.78,0,0,0,8.8-1.89,15.58,15.58,0,0,0,6.89-6.26h.21l.75,7H151.4c-.11-1.8-.21-4.17-.29-7.09s-.13-6-.13-9.32V18.93Zm0,51.61c0,.64,0,1.25,0,1.83a7.57,7.57,0,0,1-.27,1.67A7.77,7.77,0,0,1,129,78.48a7.39,7.39,0,0,1-4.95,1.82,8.09,8.09,0,0,1-6.51-3.08q-2.53-3.06-2.61-9.12a16.09,16.09,0,0,1,2.22-8.8,8,8,0,0,1,7-3.71,7.17,7.17,0,0,1,5,1.95,8.8,8.8,0,0,1,2.54,4.73,11.45,11.45,0,0,1,.09,1.22c0,.43,0,.84,0,1.22v5.83Z" transform="translate(-5.65 -18.93)"/>
    <path class="cls-1" d="M162.7,115.26h19.17V90.46h.21A11.26,11.26,0,0,0,186.77,94a19.7,19.7,0,0,0,7.72,1.49,22.59,22.59,0,0,0,11.19-3,23.33,23.33,0,0,0,8.91-9.18q3.51-6.18,3.64-15.7a32.24,32.24,0,0,0-3.15-14.44,22.81,22.81,0,0,0-7.9-9A19,19,0,0,0,196.83,41a23.09,23.09,0,0,0-9.72,2,18.92,18.92,0,0,0-7.25,5.86h-.22l-.84-6.67H162.27q.16,3.66.29,8.11c.09,3,.13,6.2.14,9.7v55.31ZM181.87,65q0-.65,0-1.26a5.59,5.59,0,0,1,.18-1.18,8.16,8.16,0,0,1,2.68-4.73,7.63,7.63,0,0,1,5.07-2,7.76,7.76,0,0,1,6.77,3.52c1.5,2.29,2.24,5.32,2.24,9.1s-.85,6.82-2.46,9a8.08,8.08,0,0,1-6.77,3.38,7.2,7.2,0,0,1-4.86-1.85,8.26,8.26,0,0,1-2.56-4.4,14.89,14.89,0,0,1-.32-3.18V65Z" transform="translate(-5.65 -18.93)"/>
    <path class="cls-2" d="M224.54,91.63a32.79,32.79,0,0,0,7.76,2.65,48.94,48.94,0,0,0,10.14,1.06q12.08-.16,18-5a15.37,15.37,0,0,0,5.88-12.47A14.57,14.57,0,0,0,263,68.25q-3.33-4-11-6.51a32.46,32.46,0,0,1-6.23-2.5c-1.14-.7-1.68-1.46-1.62-2.27a2.4,2.4,0,0,1,1.37-2.28,8.32,8.32,0,0,1,3.83-.69,25.27,25.27,0,0,1,6.45,1,32.61,32.61,0,0,1,5.1,1.87L264,43.94a35.19,35.19,0,0,0-6.62-2A43.79,43.79,0,0,0,248.5,41Q238,41.12,232,46a16.13,16.13,0,0,0-6.18,12.85,13,13,0,0,0,3.31,8.87q3.51,4.23,12,7A25.91,25.91,0,0,1,246.68,77,2.44,2.44,0,0,1,248,79.24a2.22,2.22,0,0,1-1.32,2.18,10.22,10.22,0,0,1-4.42.68,30.3,30.3,0,0,1-7.84-1.29,28.74,28.74,0,0,1-6.56-2.63l-3.29,13.45Z" transform="translate(-5.65 -18.93)"/>
    <path class="cls-1" d="M326.54,58.15c0-4.08,0-7.37.14-9.87s.18-4.55.29-6.14H310.55l-.63,5.61h-.22a13.84,13.84,0,0,0-5.38-5A17.27,17.27,0,0,0,296.23,41a22.17,22.17,0,0,0-16.7,7.5q-6.67,7.35-6.92,19.84.18,11.52,6.19,18.34a20.49,20.49,0,0,0,15.74,7,18.26,18.26,0,0,0,7.28-1.44,15.32,15.32,0,0,0,5.76-4.38h.22v2.32q-.12,6-3.5,8.91a12.7,12.7,0,0,1-8.6,2.87,32.47,32.47,0,0,1-8.56-1.24,29.41,29.41,0,0,1-6.48-2.58l-3.6,14.41a33.62,33.62,0,0,0,8.81,2.91,55.24,55.24,0,0,0,10.57,1,47.14,47.14,0,0,0,11.78-1.33A25.25,25.25,0,0,0,318.39,110a21.89,21.89,0,0,0,6.46-10.31,44,44,0,0,0,1.69-13V58.15Zm-19.06,12.5c0,.61,0,1.27,0,2a8.67,8.67,0,0,1-.28,1.92,6.57,6.57,0,0,1-2.27,3.67,6.89,6.89,0,0,1-4.41,1.53,7.4,7.4,0,0,1-6.24-3.34A14.78,14.78,0,0,1,292,68q.11-6.22,2.53-9.47a7.31,7.31,0,0,1,6-3.26,6.49,6.49,0,0,1,4.39,1.54,8,8,0,0,1,2.4,4.4c.05.37.1.77.14,1.18s.07.83.07,1.26v7Z" transform="translate(-5.65 -18.93)"/>
    <path class="cls-1" d="M45.36,29c.55,0,6-.15,8.26,1.41s.64,7.61.38,7.87c-.74.76,15.68.3,16,.35s7.09,7.12,6.37,7.44c-2.77,1.23-22.21,2-22.71,2.23s-1.47,11.39-1.47,12.13S66.47,50.12,73.74,49.79c5-.23,6.88,4.87,7.28,6.3a34.19,34.19,0,0,1,1.24,12.39C82,71.58,80,83.72,73.5,89c-1.68,1.37-5.27,3-8,1.45-2.3-1.36-12.24-9.35-11.93-9.39,1.73-.18,4.59.87,5.94,0,2-1.4,2.2-10.36,2.5-13.44,0-.52-6.81,1.72-8,2.59a8.82,8.82,0,0,0-3.22,4.12c-.43,1.63.36,4.07-.34,4.07H40.27c-.7,0,.08-2.44-.35-4.07a8.76,8.76,0,0,0-3.22-4.12c-1.22-.87-8.08-3.11-8-2.59.29,3.08.44,12,2.49,13.44,1.36.92,4.22-.13,5.94,0,.31,0-9.63,8-11.93,9.39-2.68,1.59-6.27-.08-7.94-1.45-6.45-5.29-8.55-17.43-8.77-20.53-.46-6.59.42-9.81,1.22-12.39.44-1.43,2.33-6.53,7.31-6.3,7.27.33,21.54,11.3,21.54,10.62s-1-11.86-1.46-12.13-19.94-1-22.72-2.23c-.72-.32,6-7.4,6.37-7.44s16.75.41,16-.35c-.25-.26-1.84-6.33.38-7.87S44.82,29,45.36,29Z" transform="translate(-5.65 -18.93)"/>
    <path class="cls-1" d="M45.36,80.38s-.59,0,4.71,0c1,0,11.46,15.76,12.37,17,.38.51-2.8,1.7-3.77,1.65-1.75-.08-6.37-4.56-6.93-5.12s.85,6.68.45,7.16-6.83.83-6.83.83-6.43-.35-6.83-.83,1-7.72.45-7.16-5.18,5-6.93,5.12c-1,0-4.15-1.14-3.76-1.65.9-1.21,11.36-17,12.35-17,4.72,0,4.72,0,4.72,0Z" transform="translate(-5.65 -18.93)"/>
    <path class="cls-3" d="M368.53,127.6a32.55,32.55,0,0,1-20.26,2.87c-2.08-4.19-7.36-.48-11.16-.66-6.83,2.17-13.34,1-19.91,4-3-1.85-6.41.05-9.65-.07-5.69-2.86-11.84,4.15-17,1.36-7.7,1.93-15.26,3.47-22.8,2.43a3.52,3.52,0,0,0-1.33,3.51c-3.2,1.79-6.17-.06-9.33.1.4.46,0,1,.11,1.24-2.37.12-4.94-1.27-7,.65l-1.4.65.17.57a3,3,0,0,1-4.65.52c-.54.89.79,3.5-1.17,4.08-2.85-3.2-5.66-1.9-7.72-5.14l.3-.79-1.88.87c.26.84-.27,1.73-.57,2.51-2.28.41-4.68-.42-6.81-.41-1.11-.13-.11-1.23-1.07-1.76l-.47.22c-.51,1.84,3.78,2.77.5,4.28-3-1.19-2-3.92-5.36-2.69-.32-.17-1.8,1.15-2.78-.33a1,1,0,0,1-.11-1.24c-1.56,1-4.14,2.22-5-.6l-.6-2c-.23.11-.55-.07-.87-.24,0,1.63.64,3.89-.83,5.21a6.72,6.72,0,0,1-5-2.52c-1.09.83,1.18,3-.46,3.76-2.46-.16-.3-2.76-1.91-3.63-2.45-.16-6.3-2.26-7.14,2-1.84-.77-2.5,1.46-3.59,2.29.37,2.08,1.69,1.15,2.68,2.63l-.9,2.34c-4-7.15-11.73,1.86-14.17-7-2,.58.12,4.78-3,4.27-.5-.74-1.95-2-3.19-.79l-1.17.54c.17.56.43,1.41,1,1.48-.21,1.06-1.32.93-2,1.25-2.4-4.37-7.43.2-10.89-2.4-2.47-3.7.69-7.4-4.14-7.44-1.81.19-2.32,2-2.92,3.6-2.61-3.31-4.16,1.27-6.33,2.91l.17.57c-.53.89-2.28.4-3.54.66-.92-2.15-1.89-2.68-3.82-1.14.32.17-.07.67,0,1-4.12-.36-8.55-3.47-13,.2-.89-1.19-2.6.23-3-2.13.44-1.17,2-1.26,3-1.69l-1.46-4.8c-.94.43-1.43-.31-2.31-.55-.25-.85.51-1.84-.6-2l-1.17.54a.85.85,0,0,1-.68,1.28c-.77,1-2,.58-2.54-.44l.59-1.56c-.32-.18-1.34,0-1.37-1-.23.1-.94.43-1,1.1.49.74,2.33,1.51,1,3.11-2.8-1.29-5.58-1.63-7.93-4.09-2.58,1.19-6.69-1.75-7.88,1.37l.43,1.41,2.76-.62c1.45,1.27,2,4.87.37,5.63-.7.32-1.24,1.21-2,.29-.69-2.25-3.8-.18-5.7-.27-2.41-1.79-6.06,1.17-9-.4l2.41-5.29c.32.17-3-.9-2-3l.29-.78c-.49-.74-1.26.26-1.81.19l.34,1.13c-4.45,2.05-7-4.51-12-2.53.17.56.84,1.87-.1,2.3l-1.41.65-1.35-3.57c-1.66,3.34-4.36-.25-6.51,2.35-2.67-2.64-4.64-2.06-8.08-3.69l.3-.78c-4.5.14-8.82-1.75-13.71-1.11-4.21-4.18-11.19-1.62-14.93-6-2.88,2-4.53-.82-7.37-.48-3.76-1.81-8.5-1.57-12-1.58-2.33,8.16-3.19,15-4.32,23.57,1.34,0,0,1.62.13,2.19.94-.43,1.69,1.16,2.24,1.22,10.81,2.12,20.21,4.88,31.35,4.59a28.48,28.48,0,0,0,17,2.18,1.88,1.88,0,0,1,.12-1.35,2.32,2.32,0,0,1,2.46.16c.81.92-.89,2.34.77,2.54.53-.89.34-2.41,1.68-2.38,1.46,1.26,2.32,4.09,5,2.23.56.07.81.92.9,1.2,2.57-4.73,5.58,1.62,6.17.06-.32-.18-1.11-.13-1.13-1.09,1.53-2,3.92-1.16,5.82-1.07,1.63,1.83,4.62,1.1,6.63,2.43,1-2.73,4.12.36,4.92-2.26a1.65,1.65,0,0,1,2.37-.13c-.3.78.07,2.87,1.25,2.33,2.68-3.49,6.66,4.34,6.63-3.69,1.15,2,3.62-.38,4.87,1.94,3-4.94,5.39,7.18,6.29-1.28,1.65-.76,2.25,1.22,3.06,2.14l-.3.78c.41.45,1.11.13,1.58-.08-.72-.64,0-1.63.1-2.31,2.66,1.68,4.6,3.69,7.91,3.13,4.1-.59,7.24,1.83,11.46-.12.65.35.9,1.2,1.52.59l-.3-2.75c1.81-.19,3.77-.77,5.76-.4l.77,2.54c2.33,1.51,4.63-5,5.7.28,2-.58,3.76-1.73,5.68-.68l.66-2.23c3,4.44,7.26,2.78,11.53,2.75,4.41-4,10.27-.54,14.19-5.24.87.25,1,1.48,1.24,2.33-1.41.65,1.63,1.83,2.06,3.24l2.54.44c.23-3.64,3.75-1.72,5.09-5.23a4.11,4.11,0,0,1,4.19-.32c-.58,2.52-1.86,1.82-3.42,2.86,2.62,6.84,8.09-2.43,12.11.23,2.32-5.57,5,4.14,7.23-1.72,2.88-2,1.74,3.07,4.53.82,2.85,3.2,8-5.3,10.38.7,2.3-3,6.68-1.78,8.87-2.47-.51-1.69-3,.73-2.82-2.24.68-1.28,2.26-1.36,3.26-2.47,1.61.88-.08,3.26,2.38,3.42l-.3.78c1-1.1,1.43.31,2.31.55,3.65.58,8.75-1.12,12.38-1.51,5.39-6,6.73,3.67,12.06-1.67,4.44.53,9-1.91,13.49-1.38.39-3.08,3.22-.83,4-.87,7.49-.87,15.17-3.76,22.57-4.91l.9,1.2c1.79-1.15,3.09-3,5.29-3.72,4.2,6.77,6-4.72,10.44,0,14.36-4.67,28.44-7.6,43.07-14,1.28.7,5.06-.07,4.29-2.61Z" transform="translate(-5.65 -18.93)"/>
    <path class="cls-3" d="M175.78,161.84c-.25-.85-1-2.44-2-1.33l.61,2,1.4-.65Z" transform="translate(-5.65 -18.93)"/>
    <path class="cls-3" d="M178.82,143.7c-.7.32.28,1.8.3,2.76,4.06,1-.25-.85-.3-2.76Z" transform="translate(-5.65 -18.93)"/>
    <path class="cls-3" d="M166.89,147.57c-.79,0-2.24-1.22-2.51.51.32.18,2.73,2,2.51-.51Z" transform="translate(-5.65 -18.93)"/>
    <path class="cls-3" d="M140.86,143.76l-.94.43,1.68,3.74c.27-1.74-.37-2.09-.74-4.17Z" transform="translate(-5.65 -18.93)"/>
    <path class="cls-3" d="M136.74,143.4c-1.07-1.76-2.88-1.57-4.4-2.16-1,1.1-1.82.18-2.84.33-.38.5-.36,1.46-.91,1.39,2.9-1,6.11,4.28,8.15.44Z" transform="translate(-5.65 -18.93)"/>
    <path class="cls-3" d="M95.12,139.34c-.17-.56,0-1.91-1.07-1.76,0,1,.31,2.76-1.51,2.95.73.63,3.68,1.53,2.58-1.19Z" transform="translate(-5.65 -18.93)"/>
  </g>
</svg>
